<?xml version="1.0" standalone="no"?>
<!DOCTYPE svg PUBLIC "-//W3C//DTD SVG 20010904//EN"
 "http://www.w3.org/TR/2001/REC-SVG-20010904/DTD/svg10.dtd">
<svg version="1.0" xmlns="http://www.w3.org/2000/svg"
 width="577.000000pt" height="577.000000pt" viewBox="0 0 577.000000 577.000000"
 preserveAspectRatio="xMidYMid meet">
<metadata>
Created by potrace 1.11, written by Peter Selinger 2001-2013
</metadata>
<g transform="translate(0.000000,577.000000) scale(0.100000,-0.100000)"
fill="#000000" stroke="none">
<path d="M2497 5682 c-10 -2 -17 -7 -17 -11 0 -5 -25 -8 -56 -7 -34 1 -59 -3
-66 -11 -7 -9 -15 -10 -29 -2 -10 5 -19 6 -19 1 0 -5 -11 -8 -25 -7 -15 2 -29
-3 -35 -13 -6 -11 -10 -12 -10 -4 0 9 -5 10 -16 4 -9 -5 -25 -7 -35 -5 -11 3
-19 1 -19 -4 0 -6 -12 -9 -27 -8 -16 1 -30 -2 -33 -6 -3 -5 -20 -9 -38 -11
-18 -1 -32 -6 -32 -10 0 -4 -10 -6 -22 -4 -12 1 -28 -3 -35 -10 -7 -7 -25 -11
-39 -8 -16 3 -23 1 -19 -6 6 -10 -7 -14 -32 -11 -7 1 -13 -3 -13 -9 0 -6 -3
-9 -7 -7 -5 3 -19 0 -33 -6 -14 -5 -31 -11 -39 -13 -8 -1 -17 -7 -20 -12 -3
-5 -14 -8 -23 -6 -10 1 -18 -2 -18 -8 0 -6 -7 -7 -16 -4 -8 3 -12 2 -9 -4 3
-6 1 -11 -4 -11 -6 -1 -15 -2 -20 -3 -6 0 -15 -6 -22 -13 -6 -6 -18 -9 -25 -6
-8 3 -14 0 -14 -6 0 -6 -3 -10 -7 -9 -13 3 -93 -36 -93 -45 0 -4 -4 -6 -9 -2
-5 3 -12 1 -16 -5 -3 -5 -15 -10 -26 -10 -11 0 -18 -4 -14 -9 3 -5 -4 -12 -15
-16 -11 -4 -17 -11 -14 -17 4 -6 2 -8 -4 -4 -15 9 -65 -12 -57 -24 3 -5 -1
-10 -9 -10 -28 0 -31 -1 -39 -16 -5 -8 -12 -12 -18 -9 -5 4 -9 1 -9 -4 0 -6
-6 -11 -14 -11 -8 0 -16 -4 -18 -8 -7 -17 -119 -93 -128 -87 -6 3 -10 2 -10
-4 0 -11 -58 -67 -65 -63 -3 1 -24 -17 -47 -40 -23 -24 -45 -43 -50 -43 -5 0
-13 -7 -18 -15 -5 -8 -10 -11 -10 -6 0 5 -9 -1 -20 -14 -11 -13 -20 -28 -20
-33 0 -6 -3 -8 -6 -4 -8 8 -34 -18 -34 -34 0 -7 -3 -10 -6 -6 -3 3 -28 -19
-55 -49 -27 -30 -49 -52 -49 -50 0 3 -11 -6 -25 -20 -14 -14 -25 -30 -25 -35
0 -6 -18 -28 -40 -49 -22 -21 -40 -43 -40 -49 0 -6 -5 -11 -11 -11 -5 0 -7 -4
-4 -10 3 -5 -1 -10 -10 -10 -9 0 -14 -4 -11 -9 3 -5 -1 -12 -10 -15 -8 -3 -20
-19 -25 -36 -6 -16 -15 -27 -20 -24 -8 5 -12 -8 -6 -22 1 -3 -6 -10 -16 -15
-9 -6 -14 -15 -11 -21 4 -7 2 -8 -4 -4 -6 4 -18 -8 -28 -29 -9 -19 -20 -35
-24 -35 -8 0 -23 -38 -21 -52 1 -5 -3 -8 -9 -8 -5 0 -17 -17 -27 -37 -9 -21
-26 -46 -37 -55 -10 -10 -15 -18 -11 -18 4 0 0 -9 -10 -20 -14 -15 -15 -20 -4
-20 10 0 11 -2 2 -8 -18 -11 -74 -124 -69 -138 3 -7 -2 -15 -11 -18 -8 -4 -13
-13 -9 -21 3 -9 0 -15 -9 -15 -9 0 -12 -6 -9 -15 4 -8 2 -15 -4 -15 -5 0 -9
-11 -9 -24 0 -14 -8 -32 -17 -41 -9 -9 -17 -23 -17 -31 -3 -27 -4 -32 -11 -40
-5 -4 -8 -18 -8 -31 0 -13 -4 -23 -9 -23 -6 0 -8 -9 -6 -19 2 -11 -2 -22 -9
-24 -9 -4 -12 -18 -9 -42 2 -23 0 -34 -7 -30 -6 3 -9 -4 -9 -17 1 -13 -3 -34
-8 -48 -5 -14 -9 -40 -8 -57 0 -18 -4 -33 -10 -33 -5 0 -3 -5 5 -10 8 -5 10
-10 5 -10 -15 0 -35 -60 -31 -92 2 -16 0 -28 -4 -28 -4 0 -10 -9 -13 -20 -3
-11 0 -20 6 -20 8 0 8 -3 2 -8 -12 -9 -13 -32 -1 -51 7 -10 6 -12 -4 -6 -8 5
-11 3 -8 -6 3 -8 0 -27 -6 -44 -7 -16 -9 -41 -6 -55 4 -14 3 -33 -2 -42 -6
-12 -5 -18 4 -18 8 0 9 -3 1 -11 -6 -6 -8 -23 -3 -43 4 -19 3 -41 -2 -50 -6
-11 -5 -16 4 -16 8 0 9 -3 1 -11 -6 -6 -8 -23 -3 -43 4 -19 3 -41 -2 -50 -6
-11 -5 -16 4 -16 8 0 9 -3 1 -11 -6 -6 -8 -23 -3 -43 4 -19 3 -41 -2 -50 -6
-11 -5 -16 4 -16 8 0 9 -3 1 -11 -6 -6 -8 -23 -3 -43 4 -19 3 -41 -2 -50 -6
-11 -5 -16 4 -16 9 0 9 -3 0 -12 -8 -8 -8 -16 0 -32 7 -12 12 -44 13 -71 1
-28 5 -56 9 -63 4 -6 8 -34 9 -62 0 -27 5 -50 9 -50 4 0 8 -7 8 -15 0 -8 6
-15 13 -15 8 0 7 -4 -3 -10 -8 -5 -10 -10 -4 -10 6 0 10 -18 9 -42 0 -24 2
-45 6 -48 6 -5 14 -37 24 -98 2 -13 11 -35 20 -49 9 -14 12 -22 6 -19 -6 4
-11 2 -11 -3 0 -6 5 -11 10 -11 6 0 10 -11 10 -24 0 -14 4 -27 9 -30 7 -5 22
-56 20 -72 0 -4 4 -10 11 -14 6 -4 12 -13 13 -21 4 -21 30 -83 38 -89 4 -3 10
-17 12 -30 8 -37 18 -60 28 -60 5 0 8 -3 7 -7 -4 -11 63 -143 72 -143 7 0 23
-38 21 -52 0 -4 10 -16 24 -26 13 -11 22 -22 18 -25 -3 -4 6 -22 21 -41 14
-19 26 -38 26 -43 0 -5 9 -15 20 -23 11 -8 20 -20 20 -27 0 -7 5 -13 10 -13 6
0 10 -7 10 -15 0 -8 5 -15 10 -15 6 0 10 -6 10 -14 0 -8 14 -26 30 -39 17 -14
30 -31 30 -37 0 -6 18 -29 40 -50 22 -21 40 -43 40 -49 0 -6 9 -16 20 -23 11
-7 20 -17 20 -21 0 -12 27 -37 39 -37 6 0 11 -4 11 -9 0 -12 78 -91 89 -91 5
0 13 -9 16 -20 4 -11 10 -18 14 -15 4 2 14 -7 21 -20 7 -14 21 -27 31 -30 30
-10 69 -46 62 -58 -3 -7 -3 -9 2 -5 4 4 15 0 24 -10 9 -9 22 -18 29 -20 8 -1
25 -16 39 -32 14 -17 30 -30 37 -30 7 0 21 -9 31 -20 10 -11 22 -17 26 -14 5
3 9 0 9 -5 0 -6 19 -23 42 -37 24 -15 45 -30 48 -34 3 -4 15 -10 26 -14 12 -4
32 -15 44 -26 12 -11 26 -17 30 -15 5 3 10 2 12 -2 5 -12 66 -53 78 -53 5 0
10 -5 10 -12 0 -6 3 -8 7 -5 3 4 12 2 20 -4 7 -6 13 -8 13 -4 0 5 9 0 20 -10
11 -10 20 -14 20 -9 0 5 4 5 8 -1 11 -15 49 -35 67 -35 9 0 27 -7 40 -16 14
-9 25 -12 25 -8 0 5 5 2 10 -6 5 -8 13 -15 17 -16 28 -2 73 -17 73 -25 0 -5 7
-9 15 -9 22 0 95 -24 95 -31 0 -3 12 -5 28 -4 15 1 30 -2 33 -7 3 -4 17 -9 32
-10 15 -1 27 -6 27 -11 0 -4 8 -7 18 -6 9 2 26 -2 37 -8 11 -6 29 -9 40 -7 11
1 23 -2 26 -8 4 -6 26 -11 48 -10 24 1 41 -3 41 -9 0 -6 14 -9 34 -6 19 3 45
-1 58 -7 25 -13 82 -15 94 -3 4 4 13 2 21 -4 7 -6 13 -8 13 -3 0 5 4 2 10 -6
7 -12 58 -14 322 -15 302 0 371 6 350 31 -4 4 0 4 8 -2 19 -12 113 -10 117 3
2 5 24 8 49 6 32 -3 44 -1 39 7 -4 7 2 9 19 6 15 -3 26 0 26 6 0 7 6 6 15 -2
12 -10 16 -9 20 2 4 10 18 14 41 12 20 -1 33 0 30 3 -3 4 0 13 7 21 8 11 8 14
0 9 -18 -11 -43 3 -43 25 0 10 -4 17 -8 14 -5 -3 -9 1 -10 9 -1 8 -3 22 -4 30
-1 8 -4 15 -8 15 -4 0 -7 6 -7 13 -1 24 -8 42 -23 54 -12 10 -12 12 -1 13 11
0 11 3 1 15 -6 8 -9 19 -6 24 4 5 1 13 -5 17 -8 5 -9 3 -4 -6 5 -9 4 -11 -4
-6 -6 4 -9 12 -5 17 7 12 -4 59 -14 58 -19 -3 -23 2 -12 16 10 12 9 16 -3 21
-9 3 -13 12 -10 20 3 8 -1 14 -8 14 -11 0 -11 3 1 10 10 6 11 10 3 10 -7 0
-13 11 -13 25 0 14 -4 25 -10 25 -5 0 -10 11 -10 24 0 14 -5 28 -10 31 -6 4
-8 11 -5 16 4 5 -1 9 -11 9 -13 0 -14 3 -4 15 9 11 9 15 1 15 -7 0 -10 4 -7 9
3 5 0 13 -7 19 -7 6 -14 26 -15 44 -2 18 -7 35 -12 36 -6 2 -10 12 -10 23 0
10 -5 19 -11 19 -8 0 -7 6 2 17 8 9 9 14 3 10 -13 -8 -27 19 -18 34 3 5 1 9
-4 9 -6 0 -13 7 -16 16 -4 10 -2 13 7 9 6 -4 3 1 -7 9 -11 9 -14 16 -8 16 9 0
8 7 -4 25 -8 13 -13 29 -9 35 3 6 -3 10 -15 10 -19 0 -20 1 -6 16 19 19 20 25
4 21 -7 -1 -12 6 -12 16 1 9 -2 17 -6 17 -5 0 -6 10 -3 23 4 18 3 19 -7 7 -9
-12 -11 -10 -7 14 3 19 -1 34 -13 46 -11 11 -17 29 -16 44 2 15 -1 29 -7 33
-6 3 -7 1 -3 -5 3 -6 3 -13 -2 -16 -12 -7 -11 26 1 42 7 9 5 11 -8 6 -12 -5
-16 -4 -11 4 3 6 2 13 -3 16 -5 3 -7 16 -4 29 4 18 3 19 -6 7 -8 -12 -11 -6
-11 25 0 29 -6 45 -20 55 -14 10 -16 16 -7 22 9 6 9 8 -1 8 -7 0 -11 4 -7 9 3
5 -2 17 -11 25 -11 12 -12 16 -2 16 10 0 10 2 1 8 -7 5 -14 20 -15 35 -1 15
-6 27 -11 27 -4 0 -5 5 -2 10 3 6 -1 13 -9 16 -9 3 -16 10 -16 16 0 5 6 6 13
2 6 -5 -1 10 -18 32 -16 21 -21 32 -11 24 19 -15 19 -14 2 18 -9 18 -15 36
-12 41 3 4 -4 18 -15 29 -12 13 -15 22 -7 22 6 0 3 7 -8 16 -10 8 -12 13 -4 9
9 -4 8 -1 -3 8 -14 11 -15 16 -5 20 10 4 10 6 1 6 -7 1 -13 12 -13 26 0 14 -5
25 -11 25 -6 0 -9 9 -6 20 3 11 0 20 -6 20 -6 0 -7 3 -4 7 4 3 -1 12 -11 20
-9 8 -11 12 -5 8 9 -4 11 -1 7 9 -3 9 -10 16 -14 16 -4 0 -7 13 -6 30 1 19 -3
30 -11 30 -7 0 -12 3 -12 8 3 20 -2 32 -13 26 -7 -5 -8 -3 -2 7 13 21 11 32
-11 52 -20 17 -20 17 0 10 17 -6 18 -4 8 9 -7 8 -9 18 -5 22 4 4 0 6 -8 4 -8
-2 -14 3 -13 9 2 7 -6 29 -17 49 -11 19 -15 32 -9 29 6 -4 4 3 -4 16 -8 13
-14 34 -13 46 2 12 -1 20 -6 17 -4 -3 -8 1 -8 10 0 8 -4 16 -9 18 -5 2 -11 19
-14 38 -2 19 -9 34 -15 33 -5 -1 -8 7 -5 17 3 12 0 20 -7 20 -10 0 -10 3 0 14
9 12 8 17 -9 28 -14 8 -17 16 -10 24 7 9 4 14 -12 19 -17 6 -19 9 -8 16 11 6
11 11 1 21 -6 6 -12 22 -12 35 0 15 -6 23 -17 24 -12 0 -13 2 -5 6 10 4 10 8
0 21 -11 13 -11 15 2 8 13 -7 13 -6 0 6 -26 23 -40 64 -27 78 7 7 8 10 2 8 -5
-3 -16 0 -23 8 -10 11 -10 14 0 14 9 0 9 3 -2 10 -8 5 -11 10 -6 10 4 0 1 12
-9 26 -9 15 -13 24 -8 21 5 -4 10 0 10 8 0 8 -4 12 -9 9 -7 -5 -13 27 -9 49 1
5 -3 6 -9 2 -9 -6 -14 7 -11 28 0 4 -3 7 -9 7 -5 0 -10 5 -10 11 0 5 6 7 13 3
8 -6 8 -3 -1 9 -8 9 -11 21 -7 26 3 6 0 8 -9 5 -11 -4 -14 1 -12 20 2 14 0 23
-4 21 -14 -9 -18 21 -5 39 11 15 17 16 35 6 15 -8 20 -8 16 -1 -9 14 0 14 24
1 13 -7 21 -7 26 2 5 7 3 8 -6 3 -9 -5 -11 -4 -6 4 5 8 12 9 20 2 6 -5 21 -8
31 -7 11 2 26 -1 33 -7 7 -6 12 -6 12 0 0 12 70 10 89 -2 9 -5 12 -4 8 2 -4 6
15 9 54 6 48 -3 59 -1 53 9 -6 10 -5 10 7 2 20 -16 242 -17 232 -1 -5 9 -3 9
8 1 20 -16 242 -17 232 -1 -5 9 -3 9 8 1 20 -16 242 -17 232 -1 -5 9 -3 9 8 1
20 -16 242 -17 232 -1 -5 9 -3 9 8 1 20 -16 242 -17 232 -1 -5 9 -3 9 8 1 20
-16 242 -17 232 -1 -5 9 -3 9 8 1 20 -16 242 -17 232 -1 -5 9 -3 9 8 1 20 -16
242 -17 232 -1 -5 9 -3 9 8 1 20 -16 242 -17 232 -1 -5 9 -3 9 8 1 20 -16 242
-17 232 -1 -5 9 -3 9 8 1 20 -16 242 -17 232 -1 -5 8 -2 8 8 0 9 -8 42 -11 85
-10 55 2 68 5 65 17 -2 8 -4 23 -5 33 0 9 -4 17 -9 17 -5 0 -5 6 2 13 8 10 7
17 -1 25 -8 8 -8 12 -1 12 14 0 12 31 -3 47 -6 6 -10 32 -9 57 1 25 -2 43 -7
40 -7 -5 -13 42 -9 74 1 6 -2 12 -7 12 -5 0 -9 14 -10 32 0 17 -5 34 -9 37 -5
3 -9 16 -10 29 -1 39 -3 43 -12 38 -4 -3 -6 6 -3 19 3 17 -1 27 -12 31 -14 5
-14 9 -4 22 10 12 10 16 0 19 -6 3 -10 9 -6 14 3 5 1 9 -4 9 -6 0 -8 8 -5 19
3 10 0 22 -6 25 -6 4 -11 18 -11 32 0 13 -4 24 -9 24 -8 0 -19 24 -26 55 -6
27 -30 75 -38 75 -4 0 -6 4 -2 9 3 5 1 12 -4 16 -6 3 -8 12 -4 20 3 8 0 15 -6
15 -6 0 -11 9 -11 19 0 11 -5 23 -10 26 -6 4 -8 11 -5 16 4 5 -1 9 -10 9 -11
0 -15 6 -10 19 3 12 0 21 -10 25 -9 3 -14 10 -11 15 3 5 -6 21 -20 36 -14 15
-23 30 -20 32 3 3 -2 12 -10 20 -8 8 -12 19 -9 24 4 5 2 9 -4 9 -10 0 -45 56
-39 63 2 1 -7 13 -19 27 -13 13 -23 29 -23 35 0 11 -42 51 -48 46 -2 -1 -6 0
-9 3 -4 3 -1 6 6 6 14 0 -12 37 -66 96 -18 20 -33 40 -33 44 0 5 -18 26 -39
47 -22 21 -41 45 -43 53 -2 8 -17 26 -35 41 -18 14 -30 29 -26 33 3 3 2 6 -4
6 -13 0 -123 110 -123 123 0 6 -3 8 -6 5 -7 -7 -54 39 -54 53 0 6 -4 7 -10 4
-5 -3 -20 1 -32 9 -12 9 -19 16 -15 16 4 0 -5 13 -20 28 -15 16 -33 27 -39 25
-5 -2 -23 12 -39 32 -17 19 -36 35 -42 35 -7 0 -21 7 -30 15 -58 50 -77 65
-83 65 -4 0 -17 9 -30 20 -12 11 -26 17 -30 15 -4 -3 -11 2 -14 11 -3 8 -10
13 -15 9 -5 -3 -17 5 -25 17 -9 12 -19 19 -22 15 -4 -4 -13 1 -21 11 -9 10
-11 11 -7 2 4 -8 -9 0 -29 18 -21 17 -47 32 -57 32 -11 0 -20 5 -20 10 0 6 -7
10 -15 10 -8 0 -15 5 -15 11 0 5 -4 8 -9 4 -5 -3 -12 -1 -16 5 -4 6 -10 8 -15
5 -5 -3 -15 2 -24 10 -8 8 -19 14 -23 13 -4 -1 -18 3 -30 10 -13 7 -23 9 -23
5 0 -4 -5 0 -11 9 -6 11 -16 15 -26 11 -12 -5 -14 -3 -8 7 6 10 4 12 -7 7 -9
-3 -25 1 -36 8 -10 8 -22 11 -26 7 -4 -3 -11 -1 -15 6 -4 8 -17 15 -27 17 -10
2 -19 4 -19 6 0 1 -11 3 -25 4 -13 1 -26 7 -28 13 -1 5 -12 8 -22 5 -12 -3
-20 0 -20 6 0 7 -4 9 -10 6 -5 -3 -10 -2 -10 3 0 5 -11 7 -25 4 -14 -2 -25 0
-25 5 0 6 -12 10 -27 10 -16 -1 -37 4 -48 9 -11 6 -27 10 -35 9 -8 -1 -20 3
-27 8 -7 5 -17 6 -23 2 -5 -3 -10 -1 -10 5 0 7 -8 9 -20 5 -11 -3 -25 -3 -32
2 -7 4 -21 8 -30 9 -10 1 -19 2 -20 3 -6 5 -77 12 -125 14 -29 0 -53 5 -53 10
0 4 -30 8 -67 7 -38 -1 -70 -1 -73 -1 -17 3 -500 5 -513 3z m323 -514 c0 10 5
10 21 1 16 -8 20 -8 14 1 -6 9 -2 9 14 1 16 -9 21 -9 22 1 0 10 2 10 6 1 3 -9
10 -10 24 -3 14 8 19 7 19 -2 0 -9 3 -9 10 2 9 13 10 13 10 0 0 -13 1 -13 10
0 8 12 10 12 10 1 0 -11 3 -11 15 -1 10 9 15 9 15 1 0 -6 9 -11 20 -11 11 0
20 -6 21 -12 0 -10 2 -10 6 0 6 15 33 16 33 1 0 -6 10 -9 23 -8 25 4 50 -8 42
-20 -2 -5 7 -6 22 -3 17 3 24 1 19 -6 -3 -6 1 -9 11 -8 19 3 43 -16 43 -35 0
-9 4 -8 15 1 10 9 15 9 15 1 0 -6 6 -11 13 -11 17 0 57 -46 49 -56 -4 -4 -1
-4 6 0 7 4 15 1 18 -8 3 -9 10 -13 15 -10 5 3 9 0 9 -7 0 -18 41 -59 58 -59 9
0 12 -3 9 -6 -3 -4 6 -18 21 -33 15 -14 32 -39 38 -56 6 -16 15 -29 21 -28 6
1 9 -7 6 -20 -3 -16 -2 -18 5 -9 7 11 10 9 15 -7 3 -14 1 -19 -6 -14 -7 3 -4
-3 6 -14 9 -11 15 -27 12 -35 -4 -9 0 -18 9 -21 9 -4 13 -13 10 -22 -4 -9 -1
-15 7 -15 9 0 10 -3 4 -8 -15 -11 -17 -32 -2 -32 8 0 7 -4 -3 -10 -12 -7 -12
-10 -1 -10 8 0 11 -6 7 -16 -3 -8 -2 -13 3 -10 5 3 12 -1 15 -10 3 -9 2 -12
-5 -9 -12 8 -8 -33 5 -54 6 -9 5 -12 -2 -7 -7 4 -10 -14 -8 -59 2 -36 -1 -65
-6 -65 -5 0 -7 -4 -3 -9 3 -5 1 -12 -5 -16 -15 -9 -12 -28 3 -19 9 5 9 4 0 -6
-9 -10 -10 -17 -1 -27 9 -11 7 -12 -7 -7 -13 5 -16 4 -11 -5 4 -6 2 -19 -6
-28 -11 -14 -11 -15 0 -9 11 7 11 4 1 -12 -7 -12 -18 -18 -24 -14 -5 3 -4 -1
3 -10 9 -11 10 -18 2 -23 -6 -3 -8 -10 -5 -15 3 -4 -2 -11 -11 -14 -8 -3 -12
-10 -9 -16 3 -5 -1 -10 -10 -10 -9 0 -13 -4 -10 -10 3 -5 1 -10 -5 -10 -6 0
-8 -4 -5 -10 3 -5 0 -10 -7 -10 -11 0 -10 -2 0 -9 11 -7 10 -9 -3 -15 -9 -3
-13 -11 -10 -16 4 -6 3 -10 -2 -9 -14 4 -43 -13 -38 -21 3 -4 -2 -11 -11 -14
-8 -3 -12 -11 -9 -16 4 -6 3 -10 -2 -9 -20 3 -34 -2 -28 -11 3 -5 -1 -10 -10
-10 -10 0 -13 -5 -9 -12 5 -7 2 -9 -9 -5 -11 4 -14 2 -10 -9 3 -9 -1 -14 -12
-14 -9 0 -14 -4 -11 -8 7 -12 -72 -55 -86 -46 -6 4 -8 3 -5 -3 8 -13 -40 -46
-53 -38 -6 3 -10 -2 -11 -12 0 -11 -3 -13 -6 -5 -2 6 -10 9 -16 5 -13 -8 -19
-10 -43 -12 -9 -1 -12 -6 -8 -13 6 -10 4 -10 -8 0 -13 10 -18 10 -24 1 -5 -8
-3 -9 6 -4 8 5 11 4 6 -3 -4 -6 -13 -9 -21 -5 -23 8 -67 -6 -60 -20 4 -7 -1
-3 -9 7 -10 13 -16 15 -16 7 0 -11 -3 -11 -17 0 -9 8 -14 9 -10 3 4 -7 -2 -11
-18 -11 -16 0 -22 4 -18 11 5 8 3 8 -8 0 -8 -5 -25 -9 -39 -8 -14 1 -30 -2
-37 -8 -7 -6 -14 -5 -19 3 -5 8 -3 9 6 4 9 -5 11 -4 6 4 -5 7 -13 8 -24 2 -13
-7 -20 -4 -29 12 -7 12 -12 16 -13 10 0 -7 -9 -13 -20 -13 -11 0 -20 6 -21 13
0 9 -2 9 -6 0 -3 -10 -9 -9 -20 3 -13 12 -18 13 -24 3 -6 -10 -9 -9 -15 4 -5
15 -9 15 -22 5 -12 -10 -14 -10 -8 0 4 7 1 12 -8 12 -9 0 -16 6 -17 13 0 9 -2
9 -6 -1 -4 -10 -9 -8 -20 7 -8 12 -19 21 -25 21 -6 0 -17 8 -25 18 -8 9 -12
11 -8 5 4 -9 1 -11 -9 -7 -9 3 -16 10 -16 14 0 5 -9 12 -20 15 -11 4 -18 11
-14 16 3 6 -4 13 -16 16 -14 4 -19 11 -15 22 3 8 3 12 -1 9 -4 -4 -19 6 -34
22 -16 17 -33 30 -40 30 -6 0 -8 5 -5 10 3 6 -1 10 -10 10 -9 0 -13 5 -10 10
3 6 1 10 -4 10 -6 0 -11 7 -11 16 0 8 -4 13 -9 10 -5 -3 -12 1 -15 10 -4 10
-2 13 7 8 8 -5 7 -2 -2 9 -7 9 -10 17 -5 18 5 0 -1 4 -14 10 -14 5 -20 13 -16
20 4 7 -1 18 -11 26 -14 10 -15 13 -4 14 8 0 6 4 -6 9 -11 5 -14 9 -7 9 7 1
10 6 7 11 -4 6 -12 7 -18 4 -9 -5 -9 -4 0 6 13 14 1 47 -21 62 -7 5 -7 8 2 8
7 0 11 4 7 9 -3 5 0 13 5 16 8 5 6 13 -5 25 -9 10 -14 24 -10 29 3 6 1 11 -5
11 -7 0 -8 6 -1 18 6 11 6 24 0 33 -12 19 -11 32 2 23 8 -4 8 0 0 15 -9 16 -9
21 1 22 10 0 10 2 1 6 -7 2 -13 9 -13 14 0 6 5 7 11 3 8 -5 8 -1 0 13 -8 15
-6 26 6 43 13 18 13 22 2 16 -8 -4 -5 0 5 8 13 11 15 16 6 16 -7 0 -10 3 -7 7
4 3 2 12 -5 20 -8 10 -8 12 4 8 10 -4 17 1 21 14 3 11 1 21 -5 23 -5 2 0 16
12 31 15 18 17 27 8 27 -8 0 -9 3 -3 8 6 4 19 18 30 32 18 23 19 24 1 10 -18
-14 -18 -14 -5 7 7 12 15 20 18 17 3 -2 13 14 23 36 10 22 30 47 43 56 14 9
22 21 18 28 -3 6 -3 8 1 5 9 -8 82 62 78 74 -1 5 1 6 6 3 11 -6 43 30 34 39
-4 3 1 3 11 -1 9 -3 17 -1 17 4 0 6 10 9 21 7 12 -3 19 -2 16 1 -12 12 26 41
46 36 16 -4 19 -1 14 11 -4 12 0 14 19 11 13 -2 24 0 24 6 0 6 3 9 8 7 4 -3
18 0 32 5 39 16 73 18 90 5 8 -6 12 -7 8 -3 -4 5 -3 15 4 23 9 11 13 11 19 1
7 -10 9 -11 9 0z"/>
</g>
</svg>
