<svg xmlns="http://www.w3.org/2000/svg" xmlns:xlink="http://www.w3.org/1999/xlink" version="1.1" width="1000" height="1000" viewBox="0 0 1000 1000" xml:space="preserve">
<desc>Created with Fabric.js 3.5.0</desc>
<defs>
</defs>
<rect x="0" y="0" width="100%" height="100%" fill="#ffffff"/>
<g transform="matrix(2.8498 0 0 2.8498 502.8475 502.8482)" id="Layer_1">
<path style="stroke: none; stroke-width: 1; stroke-dasharray: none; stroke-linecap: butt; stroke-dashoffset: 0; stroke-linejoin: miter; stroke-miterlimit: 4; is-custom-font: none; font-file-url: none; fill: rgb(0,255,20); fill-rule: nonzero; opacity: 1;" transform=" translate(-160.5, -111)" d="M 257 221 C 192.979111 221 128.958206 221 64.703262 220.630737 C 63.634224 219.84407 62.837967 219.301178 61.957981 219.029556 C 56.073349 217.213165 49.787666 216.230972 44.34071 213.54245 C 21.101694 202.072159 6.990731 183.559113 2.91241 157.706741 C 2.809362 157.053513 1.660903 156.565216 1 156 C 1 150.311966 1 144.623917 1.382088 138.686615 C 2.152093 137.930176 2.830169 137.452362 2.884894 136.911499 C 3.886287 127.01432 7.073449 117.898361 12.210414 109.383057 C 22.33811 92.594872 37.016346 81.719101 55.624428 76.153183 C 58.384823 75.327499 58.959183 74.28653 59.046886 71.822823 C 59.210606 67.223824 59.270714 62.567577 60.053329 58.052929 C 64.853683 30.361277 85.98008 7.882636 115.290527 2.914978 C 115.9496 2.803277 116.434074 1.661356 117 0.999998 C 124.354248 1 131.708496 1 139.29184 1.365048 C 141.327133 2.300586 143.120346 2.916634 144.941467 3.43459 C 165.326645 9.232471 180.768204 21.092834 190.168579 40.31398 C 218.457794 37.636158 241.513992 46.696239 257.706573 70.616142 C 259.711243 73.577469 261.893066 75.055756 265.075073 76.00116 C 269.425293 77.293671 273.85318 78.565231 277.922607 80.522003 C 299.004456 90.659058 311.9646 107.496559 318.056366 129.895599 C 318.278595 130.71283 319.333282 131.30365 320 132 C 320 141.687561 320 151.375122 319.653809 161.26738 C 318.530792 163.54866 317.701965 165.607468 316.985016 167.704514 C 307.336304 195.926666 288.711487 213.932892 258.704285 219.086334 C 258.046082 219.199387 257.564178 220.339172 257 221 M 96.818947 161.499908 C 96.818947 169.563812 96.818947 177.627731 96.818947 185.619949 C 116.678185 185.619949 135.740143 185.619949 154.817352 185.619949 C 154.817352 162.160172 154.817352 138.98114 154.817352 115.91246 C 135.369293 115.91246 116.301514 115.91246 96.818947 115.91246 C 96.818947 130.957779 96.818947 145.728836 96.818947 161.499908 M 90.945053 176.425049 C 90.945053 156.321213 90.945053 136.217361 90.945053 116.117111 C 84.010765 116.080833 79.293892 120.226128 79.192345 127.09948 C 78.959038 142.89238 78.950912 158.694077 79.212151 174.486252 C 79.322945 181.183395 84.093452 185.275635 90.945053 185.343582 C 90.945053 182.693848 90.945053 180.044815 90.945053 176.425049 M 161.065125 146.499985 C 161.065125 159.538757 161.065125 172.57753 161.065125 185.703461 C 168.428894 184.585419 172.626892 181.08786 172.743408 174.958817 C 173.049789 158.844055 173.059677 142.715775 172.754822 126.601067 C 172.63031 120.019753 167.78949 116.071121 161.065125 116.135643 C 161.065125 125.919136 161.065125 135.709549 161.065125 146.499985 M 138.861038 100.403702 C 140.791138 103.379829 142.721252 106.355965 144.969376 109.822456 C 145.858444 109.77285 147.435013 109.684875 148.988754 109.598183 C 148.971008 100.237083 142.736908 93.173203 133.473358 92.293854 C 128.53006 91.824615 123.467522 91.818039 118.525742 92.295494 C 108.949837 93.220688 102.24247 101.139053 103.390251 109.857239 C 104.958656 109.778732 106.546944 109.699234 108.253746 109.6138 C 109.139458 104.480278 111.175743 100.00621 116.276634 98.951202 C 123.560776 97.444641 131.040466 96.683037 138.861038 100.403702 z" stroke-linecap="round"/>
</g>
<g transform="matrix(2.8498 0 0 2.8498 404.0125 615.388)" id="Layer_1">
<path style="stroke: none; stroke-width: 1; stroke-dasharray: none; stroke-linecap: butt; stroke-dashoffset: 0; stroke-linejoin: miter; stroke-miterlimit: 4; is-custom-font: none; font-file-url: none; fill: rgb(40,36,61); fill-rule: nonzero; opacity: 1;" transform=" translate(-125.8181, -150.7662)" d="M 96.818947 160.999893 C 96.818947 145.728836 96.818947 130.957779 96.818947 115.91246 C 116.301514 115.91246 135.369293 115.91246 154.817352 115.91246 C 154.817352 138.98114 154.817352 162.160172 154.817352 185.619949 C 135.740143 185.619949 116.678185 185.619949 96.818947 185.619949 C 96.818947 177.627731 96.818947 169.563812 96.818947 160.999893 z" stroke-linecap="round"/>
</g>
<g transform="matrix(2.8498 0 0 2.8498 287.6343 616.0731)" id="Layer_1">
<path style="stroke: none; stroke-width: 1; stroke-dasharray: none; stroke-linecap: butt; stroke-dashoffset: 0; stroke-linejoin: miter; stroke-miterlimit: 4; is-custom-font: none; font-file-url: none; fill: rgb(40,36,61); fill-rule: nonzero; opacity: 1;" transform=" translate(-84.9809, -150.7302)" d="M 90.945053 176.910416 C 90.945053 180.044815 90.945053 182.693848 90.945053 185.343582 C 84.093452 185.275635 79.322945 181.183395 79.212151 174.486252 C 78.950912 158.694077 78.959038 142.89238 79.192345 127.09948 C 79.293892 120.226128 84.010765 116.080833 90.945053 116.117111 C 90.945053 136.217361 90.945053 156.321213 90.945053 176.910416 z" stroke-linecap="round"/>
</g>
<g transform="matrix(2.8498 0 0 2.8498 521.4355 616.6115)" id="Layer_1">
<path style="stroke: none; stroke-width: 1; stroke-dasharray: none; stroke-linecap: butt; stroke-dashoffset: 0; stroke-linejoin: miter; stroke-miterlimit: 4; is-custom-font: none; font-file-url: none; fill: rgb(40,36,61); fill-rule: nonzero; opacity: 1;" transform=" translate(-167.0218, -150.9192)" d="M 161.065125 145.999969 C 161.065125 135.709549 161.065125 125.919136 161.065125 116.135643 C 167.78949 116.071121 172.63031 120.019753 172.754822 126.601067 C 173.059677 142.715775 173.049789 158.844055 172.743408 174.958817 C 172.626892 181.08786 168.428894 184.585419 161.065125 185.703461 C 161.065125 172.57753 161.065125 159.538757 161.065125 145.999969 z" stroke-linecap="round"/>
</g>
<g transform="matrix(2.8498 0 0 2.8498 404.8888 474.0622)" id="Layer_1">
<path style="stroke: none; stroke-width: 1; stroke-dasharray: none; stroke-linecap: butt; stroke-dashoffset: 0; stroke-linejoin: miter; stroke-miterlimit: 4; is-custom-font: none; font-file-url: none; fill: rgb(40,36,61); fill-rule: nonzero; opacity: 1;" transform=" translate(-126.1256, -100.8985)" d="M 138.532196 100.195587 C 131.040466 96.683037 123.560776 97.444641 116.276634 98.951202 C 111.175743 100.00621 109.139458 104.480278 108.253746 109.6138 C 106.546944 109.699234 104.958656 109.778732 103.390251 109.857239 C 102.24247 101.139053 108.949837 93.220688 118.525742 92.295494 C 123.467522 91.818039 128.53006 91.824615 133.473358 92.293854 C 142.736908 93.173203 148.971008 100.237083 148.988754 109.598183 C 147.435013 109.684875 145.858444 109.77285 144.969376 109.822456 C 142.721252 106.355965 140.791138 103.379829 138.532196 100.195587 z" stroke-linecap="round"/>
</g>
</svg>